<svg width="15" height="15" viewBox="0 0 15 15" fill="none" xmlns="http://www.w3.org/2000/svg">
<path d="M7.25478 1.32288C9.18685 1.32288 9.41599 1.33012 10.1794 1.36509C12.1404 1.45434 13.0564 2.3848 13.1457 4.33134C13.1806 5.09416 13.1873 5.32331 13.1873 7.25538C13.1873 9.18805 13.18 9.4166 13.1457 10.1794C13.0558 12.1241 12.1422 13.0564 10.1794 13.1457C9.41599 13.1806 9.18805 13.1879 7.25478 13.1879C5.3227 13.1879 5.09356 13.1806 4.33074 13.1457C2.3649 13.0558 1.45374 12.1211 1.36449 10.1788C1.32952 9.41599 1.32228 9.18745 1.32228 7.25478C1.32228 5.3227 1.33012 5.09416 1.36449 4.33074C1.45434 2.3848 2.36791 1.45374 4.33074 1.36449C5.09416 1.33012 5.3227 1.32288 7.25478 1.32288ZM7.25478 0.0185547C5.28954 0.0185547 5.04351 0.0269969 4.27164 0.061972C1.64369 0.182576 0.183179 1.64067 0.062575 4.27104C0.0269969 5.04351 0.0185547 5.28954 0.0185547 7.25478C0.0185547 9.22001 0.0269969 9.46665 0.061972 10.2385C0.182576 12.8665 1.64067 14.327 4.27104 14.4476C5.04351 14.4826 5.28954 14.491 7.25478 14.491C9.22001 14.491 9.46665 14.4826 10.2385 14.4476C12.8641 14.327 14.3282 12.8689 14.447 10.2385C14.4826 9.46665 14.491 9.22001 14.491 7.25478C14.491 5.28954 14.4826 5.04351 14.4476 4.27164C14.3294 1.6461 12.8695 0.183179 10.2391 0.062575C9.46665 0.0269969 9.22001 0.0185547 7.25478 0.0185547ZM7.25478 3.53898C5.2027 3.53898 3.53898 5.2027 3.53898 7.25478C3.53898 9.30685 5.2027 10.9712 7.25478 10.9712C9.30685 10.9712 10.9706 9.30745 10.9706 7.25478C10.9706 5.2027 9.30685 3.53898 7.25478 3.53898ZM7.25478 9.66685C5.92271 9.66685 4.8427 8.58745 4.8427 7.25478C4.8427 5.92271 5.92271 4.8427 7.25478 4.8427C8.58684 4.8427 9.66685 5.92271 9.66685 7.25478C9.66685 8.58745 8.58684 9.66685 7.25478 9.66685ZM11.1177 2.5241C10.6377 2.5241 10.2488 2.91304 10.2488 3.39244C10.2488 3.87184 10.6377 4.26079 11.1177 4.26079C11.5971 4.26079 11.9855 3.87184 11.9855 3.39244C11.9855 2.91304 11.5971 2.5241 11.1177 2.5241Z" fill="white"/>
</svg>
