<svg width="14" height="14" viewBox="0 0 14 14" fill="none" xmlns="http://www.w3.org/2000/svg">
<g clip-path="url(#clip0_2131_735)">
<path d="M13.6437 13.6042L13.6471 13.6036V8.62826C13.6471 6.19428 13.1221 4.31934 10.271 4.31934C8.90043 4.31934 7.98067 5.06999 7.60517 5.78165H7.56553V4.54657H4.8623V13.6036H7.6771V9.1189C7.6771 7.93809 7.90138 6.79627 9.36654 6.79627C10.8102 6.79627 10.8317 8.14384 10.8317 9.19464V13.6042H13.6437Z" fill="white"/>
<path d="M0.277344 4.54785H3.09554V13.6049H0.277344V4.54785Z" fill="white"/>
<path d="M1.68595 0.0380859C0.784878 0.0380859 0.0537109 0.767827 0.0537109 1.66714C0.0537109 2.56646 0.784878 3.31147 1.68595 3.31147C2.58702 3.31147 3.31819 2.56646 3.31819 1.66714C3.31763 0.767827 2.58646 0.0380859 1.68595 0.0380859Z" fill="white"/>
</g>
<defs>
<clipPath id="clip0_2131_735">
<rect width="13.5926" height="13.5926" fill="white" transform="translate(0.0537109 0.0185547)"/>
</clipPath>
</defs>
</svg>
