<svg width="260" height="71" viewBox="0 0 260 71" fill="none" xmlns="http://www.w3.org/2000/svg">
<path fill-rule="evenodd" clip-rule="evenodd" d="M43.7143 38.8523L43.839 38.9642L43.8569 38.9687L43.9816 39.0807L43.9683 55.907L43.9415 69.8893V70.6148H41.8652V69.8893L41.8786 57.9403L35.7788 63.4445V70.6104H33.7158V18.8372L27.3175 13.0821V70.6148H25.2412V41.526L18.9944 47.1826V70.6148H16.9314V22.859L10.6579 28.5155V70.6104H8.58156V63.234L1.20302 69.8893L0.619334 70.4267L0 71V44.5088L0.147036 44.3968L0.182681 44.3834L0.329717 44.2356L8.57711 36.819V15.1826H10.6534V25.7209L16.927 20.0778V9.32903L17.0517 9.21706L17.1364 9.14091L17.2612 9.01552L26.0922 1.06143L26.6893 0.537445L27.3086 0V10.274L35.5426 17.7041L35.654 17.8026L35.7654 17.9146V31.6999L43.7143 38.8523ZM2.05851 66.3333L8.57711 60.4528V39.5912L2.05851 45.4717V66.3333ZM18.9855 44.37L25.2323 38.7537V4.64436L18.9855 10.2606V44.37ZM35.7654 60.6364L41.8652 55.1322H41.8607L41.8875 39.9988L35.7654 34.4811V60.6364Z" fill="url(#paint0_linear_2003_352)"/>
<path fill-rule="evenodd" clip-rule="evenodd" d="M57.6445 22.371C57.6445 13.0688 65.1701 5.50439 74.4111 5.50439C83.6031 5.50439 91.093 13.1315 91.093 22.371C91.093 31.6104 83.6521 39.1256 74.4111 39.1256C65.1701 39.1256 57.6445 31.6731 57.6445 22.371ZM78.2118 36.8191C78.488 36.743 80.5733 36.1428 82.6228 34.5081C85.5636 32.1747 87.0562 28.8785 87.0562 24.7447C87.0562 23.1503 86.7978 21.3633 86.2497 19.1284C85.0824 14.7841 81.8921 7.47948 73.6314 7.47948H73.5333C72.1031 7.47948 71.0605 7.71684 70.6372 7.82881L70.5882 7.87808H70.4901C70.205 7.95421 68.1286 8.54092 66.0924 10.1622C63.1606 12.5 61.6813 15.7695 61.6813 19.8764C61.6813 21.3499 61.9398 23.0338 62.5502 25.5195C63.7042 29.8906 66.8722 37.2177 75.1552 37.2177C76.9063 37.2177 78.136 36.8325 78.136 36.8325L78.185 36.8191H78.2118ZM82.4714 10.9504C83.407 11.976 84.1734 13.1226 84.7838 14.296C84.1734 13.1226 83.416 11.976 82.4714 10.9504ZM84.7838 14.296C85.4106 15.4874 85.8853 16.7007 86.2469 17.8077C85.8873 16.7036 85.4225 15.487 84.7838 14.296Z" fill="url(#paint1_linear_2003_352)"/>
<path d="M132.149 39.1256V5.50439H128.028V20.5482H107.906V5.50439H103.82V39.1256H107.906V22.7606H128.028V39.1256H132.149Z" fill="url(#paint2_linear_2003_352)"/>
<path fill-rule="evenodd" clip-rule="evenodd" d="M176.867 38.6016L176.631 38.0776L161.971 5.9433L161.882 5.74176L161.798 5.50439H158.247L158.135 5.71489L158.037 5.92538L143.432 38.0865L143.209 38.5971L142.973 39.1211H145.258L145.356 38.8972L145.454 38.6867L150.213 28.3231H167.938L172.683 38.7001L172.794 38.9241L172.892 39.1256H177.089L176.867 38.6016ZM151.158 26.1554L159.044 8.81412L166.917 26.1554H151.158Z" fill="url(#paint3_linear_2003_352)"/>
<path d="M215.062 39.1256V5.50439H212.861V32.9092L190.792 5.79103L190.689 5.65666L190.578 5.50439H186.715V39.1256H188.876V9.19032L213.021 38.8524L213.123 38.9912L213.235 39.1256H215.062Z" fill="url(#paint4_linear_2003_352)"/>
<path fill-rule="evenodd" clip-rule="evenodd" d="M259.758 38.6016L259.536 38.0776L244.881 5.9433L244.792 5.74176L244.694 5.50439H241.116L241.018 5.74176L240.933 5.95226L226.328 38.0865L226.092 38.5971L225.855 39.1211H228.168L228.266 38.8972L228.351 38.6867L233.096 28.3231H250.82L255.588 38.7001L255.673 38.9017L255.771 39.1256H259.995L259.758 38.6016ZM234.058 26.1554L241.931 8.81412L249.796 26.1554H234.058Z" fill="url(#paint5_linear_2003_352)"/>
<path fill-rule="evenodd" clip-rule="evenodd" d="M58.1992 53.8468H62.8687L62.8732 53.8423C66.1525 53.8826 68.8215 56.5787 68.8215 59.9243C68.8215 63.2698 66.2015 65.9436 62.8464 65.9929H58.1992V53.8468ZM63.0281 55.1996L63.0514 55.2038C63.0112 55.1893 62.9673 55.1842 62.9208 55.1788C62.8954 55.1758 62.8687 55.1727 62.842 55.168H60.1731V55.1724H62.842C62.86 55.1747 62.8782 55.1764 62.8965 55.1781L62.9062 55.179C62.9483 55.1829 62.9901 55.1875 63.0281 55.1996ZM63.849 64.2104L63.9604 64.1835V64.188C63.9871 64.188 66.4823 63.6416 66.4823 60.7439C66.4823 60.2826 66.3931 59.6959 66.2327 58.9838C65.6624 56.8475 64.5173 55.6964 62.842 55.5486H60.5429V64.2865H62.842C62.8707 64.2865 62.8963 64.2911 62.9322 64.2975C62.9575 64.3021 62.9889 64.3078 63.0291 64.3134C63.4123 64.3134 63.7108 64.2507 63.8356 64.2238L63.849 64.2104Z" fill="url(#paint6_linear_2003_352)"/>
<path d="M87.1106 64.2819V65.9928H77.9453V53.8467H86.6294V55.5441H80.2801V59.0912H84.9496V60.7751H80.2801V64.2819H87.1106Z" fill="url(#paint7_linear_2003_352)"/>
<path d="M106.875 54.3976L107.165 53.8467H105.298L105.186 54.0482L105.088 54.2453L100.976 62.6965L96.8675 54.2587L96.7784 54.0706L96.6804 53.8467H94.1719L94.4303 54.3841L94.6798 54.8947L99.884 65.5807L99.9954 65.7957L100.093 65.9928H101.252L101.35 65.7688L101.435 65.5718L101.76 64.9224L106.616 54.8947L106.875 54.3976Z" fill="url(#paint8_linear_2003_352)"/>
<path d="M124.277 64.2819V65.9928H115.121V53.8467H123.792V55.5441H117.447V59.0912H122.116V60.7751H117.447V64.2819H124.277Z" fill="url(#paint9_linear_2003_352)"/>
<path d="M141.196 65.9928V64.2819H134.846V53.8467H132.512V65.9928H141.196Z" fill="url(#paint10_linear_2003_352)"/>
<path fill-rule="evenodd" clip-rule="evenodd" d="M153.437 53.8467C150.109 53.8467 147.387 56.5787 147.387 59.9287C147.387 63.2787 150.105 65.9973 153.437 65.9973C156.77 65.9973 159.475 63.2742 159.475 59.9287C159.475 56.5831 156.766 53.8467 153.437 53.8467ZM154.618 64.2595H154.605L154.516 64.273C154.516 64.273 154.182 64.3849 153.696 64.3849C151.847 64.3849 150.59 63.1847 149.971 60.8513C149.784 60.0899 149.699 59.5525 149.699 59.118C149.699 56.3288 151.998 55.6631 152.269 55.5849L152.27 55.5844L152.382 55.5575V55.5441C152.631 55.4948 152.876 55.468 153.152 55.468C155.001 55.468 156.294 56.6772 156.904 58.9747C157.078 59.651 157.153 60.2108 157.153 60.7214C157.153 63.4176 155.019 64.1431 154.618 64.2551V64.2595Z" fill="url(#paint11_linear_2003_352)"/>
<path fill-rule="evenodd" clip-rule="evenodd" d="M168.641 53.8468H173.497V53.8423C176.082 53.8423 177.971 55.6158 177.971 57.9761C177.971 60.3363 176.131 61.9845 173.497 61.9845H170.962V65.9929H168.641V53.8468ZM170.962 60.2781H173.497V60.2736C174.13 60.2736 175.609 60.1124 175.609 58.6389C175.609 58.3388 175.56 57.9895 175.435 57.5148C174.887 55.7547 174.068 55.5442 173.497 55.5442H170.962V60.2781Z" fill="url(#paint12_linear_2003_352)"/>
<path d="M201.672 65.9928H199.31L199.297 65.6345L199.274 65.2941L198.864 57.7162L194.814 65.5942L194.703 65.7957L194.591 65.9928H193.509L193.397 65.7957L193.299 65.5807L189.222 57.7028L188.826 65.3076L188.79 65.6434L188.764 65.9928H187.102L187.11 65.5942L187.137 65.209L187.708 54.5453L187.734 54.2094L187.748 53.8467H189.735L189.846 54.0348L189.958 54.2318L194.364 62.8129L198.775 54.2318L198.873 54.0572L198.976 53.8467H200.985L201.012 54.1826L201.048 54.5453L201.609 65.1956L201.645 65.5807L201.672 65.9928Z" fill="url(#paint13_linear_2003_352)"/>
<path d="M219.918 65.9928V64.2819H213.083V60.7751H217.766V59.0912H213.083V55.5441H219.446V53.8467H210.762V65.9928H219.918Z" fill="url(#paint14_linear_2003_352)"/>
<path d="M238.547 53.8467V65.9928H237.22L237.108 65.845L237.006 65.7196L229.854 56.9325V65.9928H228.152V53.8467H230.148L230.264 53.9721L230.376 54.1109L236.845 62.0605V53.8467H238.547Z" fill="url(#paint15_linear_2003_352)"/>
<path d="M259.028 55.5441V53.8467H246.953V55.5441H251.836V65.9928H254.171V55.5441H259.028Z" fill="url(#paint16_linear_2003_352)"/>
<defs>
<linearGradient id="paint0_linear_2003_352" x1="346.498" y1="11" x2="306.564" y2="-103.197" gradientUnits="userSpaceOnUse">
<stop stop-color="#9C8C5B"/>
<stop offset="0.507681" stop-color="#D7C796"/>
<stop offset="0.959" stop-color="#756535"/>
</linearGradient>
<linearGradient id="paint1_linear_2003_352" x1="346.498" y1="11" x2="306.564" y2="-103.197" gradientUnits="userSpaceOnUse">
<stop stop-color="#9C8C5B"/>
<stop offset="0.507681" stop-color="#D7C796"/>
<stop offset="0.959" stop-color="#756535"/>
</linearGradient>
<linearGradient id="paint2_linear_2003_352" x1="346.498" y1="11" x2="306.564" y2="-103.197" gradientUnits="userSpaceOnUse">
<stop stop-color="#9C8C5B"/>
<stop offset="0.507681" stop-color="#D7C796"/>
<stop offset="0.959" stop-color="#756535"/>
</linearGradient>
<linearGradient id="paint3_linear_2003_352" x1="346.498" y1="11" x2="306.564" y2="-103.197" gradientUnits="userSpaceOnUse">
<stop stop-color="#9C8C5B"/>
<stop offset="0.507681" stop-color="#D7C796"/>
<stop offset="0.959" stop-color="#756535"/>
</linearGradient>
<linearGradient id="paint4_linear_2003_352" x1="346.498" y1="11" x2="306.564" y2="-103.197" gradientUnits="userSpaceOnUse">
<stop stop-color="#9C8C5B"/>
<stop offset="0.507681" stop-color="#D7C796"/>
<stop offset="0.959" stop-color="#756535"/>
</linearGradient>
<linearGradient id="paint5_linear_2003_352" x1="346.498" y1="11" x2="306.564" y2="-103.197" gradientUnits="userSpaceOnUse">
<stop stop-color="#9C8C5B"/>
<stop offset="0.507681" stop-color="#D7C796"/>
<stop offset="0.959" stop-color="#756535"/>
</linearGradient>
<linearGradient id="paint6_linear_2003_352" x1="346.498" y1="11" x2="306.564" y2="-103.197" gradientUnits="userSpaceOnUse">
<stop stop-color="#9C8C5B"/>
<stop offset="0.507681" stop-color="#D7C796"/>
<stop offset="0.959" stop-color="#756535"/>
</linearGradient>
<linearGradient id="paint7_linear_2003_352" x1="346.498" y1="11" x2="306.564" y2="-103.197" gradientUnits="userSpaceOnUse">
<stop stop-color="#9C8C5B"/>
<stop offset="0.507681" stop-color="#D7C796"/>
<stop offset="0.959" stop-color="#756535"/>
</linearGradient>
<linearGradient id="paint8_linear_2003_352" x1="346.498" y1="11" x2="306.564" y2="-103.197" gradientUnits="userSpaceOnUse">
<stop stop-color="#9C8C5B"/>
<stop offset="0.507681" stop-color="#D7C796"/>
<stop offset="0.959" stop-color="#756535"/>
</linearGradient>
<linearGradient id="paint9_linear_2003_352" x1="346.498" y1="11" x2="306.564" y2="-103.197" gradientUnits="userSpaceOnUse">
<stop stop-color="#9C8C5B"/>
<stop offset="0.507681" stop-color="#D7C796"/>
<stop offset="0.959" stop-color="#756535"/>
</linearGradient>
<linearGradient id="paint10_linear_2003_352" x1="346.498" y1="11" x2="306.564" y2="-103.197" gradientUnits="userSpaceOnUse">
<stop stop-color="#9C8C5B"/>
<stop offset="0.507681" stop-color="#D7C796"/>
<stop offset="0.959" stop-color="#756535"/>
</linearGradient>
<linearGradient id="paint11_linear_2003_352" x1="346.498" y1="11" x2="306.564" y2="-103.197" gradientUnits="userSpaceOnUse">
<stop stop-color="#9C8C5B"/>
<stop offset="0.507681" stop-color="#D7C796"/>
<stop offset="0.959" stop-color="#756535"/>
</linearGradient>
<linearGradient id="paint12_linear_2003_352" x1="346.498" y1="11" x2="306.564" y2="-103.197" gradientUnits="userSpaceOnUse">
<stop stop-color="#9C8C5B"/>
<stop offset="0.507681" stop-color="#D7C796"/>
<stop offset="0.959" stop-color="#756535"/>
</linearGradient>
<linearGradient id="paint13_linear_2003_352" x1="346.498" y1="11" x2="306.564" y2="-103.197" gradientUnits="userSpaceOnUse">
<stop stop-color="#9C8C5B"/>
<stop offset="0.507681" stop-color="#D7C796"/>
<stop offset="0.959" stop-color="#756535"/>
</linearGradient>
<linearGradient id="paint14_linear_2003_352" x1="346.498" y1="11" x2="306.564" y2="-103.197" gradientUnits="userSpaceOnUse">
<stop stop-color="#9C8C5B"/>
<stop offset="0.507681" stop-color="#D7C796"/>
<stop offset="0.959" stop-color="#756535"/>
</linearGradient>
<linearGradient id="paint15_linear_2003_352" x1="346.498" y1="11" x2="306.564" y2="-103.197" gradientUnits="userSpaceOnUse">
<stop stop-color="#9C8C5B"/>
<stop offset="0.507681" stop-color="#D7C796"/>
<stop offset="0.959" stop-color="#756535"/>
</linearGradient>
<linearGradient id="paint16_linear_2003_352" x1="346.498" y1="11" x2="306.564" y2="-103.197" gradientUnits="userSpaceOnUse">
<stop stop-color="#9C8C5B"/>
<stop offset="0.507681" stop-color="#D7C796"/>
<stop offset="0.959" stop-color="#756535"/>
</linearGradient>
</defs>
</svg>
