<svg width="12" height="14" viewBox="0 0 12 14" fill="none" xmlns="http://www.w3.org/2000/svg">
<path d="M11.7149 11.9995L9.4313 9.71586C10.2828 8.76112 10.8118 7.49673 10.8118 6.11623C10.8118 3.13589 8.38624 0.710327 5.4059 0.710327C2.42556 0.710327 0 3.13589 0 6.11623C0 9.09657 2.42556 11.5221 5.4059 11.5221C6.46386 11.5221 7.4444 11.2125 8.27012 10.6964L10.6441 13.0704C10.786 13.2123 10.9795 13.2897 11.1731 13.2897C11.3666 13.2897 11.5601 13.2123 11.702 13.0704C12.0117 12.7736 12.0117 12.2962 11.7149 11.9995ZM1.50952 6.11623C1.50952 3.97451 3.25128 2.21985 5.4059 2.21985C7.56052 2.21985 9.28938 3.97451 9.28938 6.11623C9.28938 8.25795 7.54762 10.0126 5.4059 10.0126C3.26418 10.0126 1.50952 8.27085 1.50952 6.11623Z" fill="#E5D8C7"/>
</svg>
