<svg width="20" height="20" viewBox="0 0 20 20" fill="none" xmlns="http://www.w3.org/2000/svg">
<path d="M0.0835938 9.90997C0.0830469 11.6566 0.541406 13.3617 1.41281 14.8647L0 20L5.27899 18.622C6.73352 19.4115 8.37117 19.8278 10.0376 19.8284H10.0419C15.53 19.8284 19.9977 15.3821 20 9.91791C20.0009 7.26977 18.9659 4.7796 17.0859 2.90635C15.2057 1.03334 12.7057 0.00108887 10.0419 0C4.55281 0 0.0857813 4.44571 0.0835938 9.90997ZM3.22734 14.6058L3.03023 14.2943C2.20164 12.9827 1.7643 11.467 1.76492 9.9106C1.76672 5.36884 5.47953 1.67375 10.045 1.67375C12.2559 1.67468 14.3338 2.53272 15.8966 4.08949C17.4593 5.64642 18.3192 7.71605 18.3187 9.91729C18.3166 14.459 14.6038 18.1546 10.0419 18.1546H10.0386C8.5532 18.1538 7.09641 17.7567 5.82594 17.0062L5.52359 16.8277L2.39094 17.6454L3.22734 14.6058Z" fill="white"/>
<path d="M7.55284 5.76699C7.36644 5.35454 7.17026 5.34622 6.993 5.33898C6.84784 5.33276 6.6819 5.33323 6.51612 5.33323C6.35018 5.33323 6.08058 5.39537 5.85269 5.64309C5.62456 5.89104 4.98175 6.49023 4.98175 7.70891C4.98175 8.92767 5.87339 10.1054 5.99769 10.2709C6.12214 10.436 7.71901 13.0169 10.2481 14.0098C12.35 14.835 12.7777 14.6708 13.2339 14.6295C13.6901 14.5882 14.706 14.0304 14.9133 13.452C15.1207 12.8737 15.1207 12.3779 15.0585 12.2743C14.9964 12.1711 14.8304 12.1091 14.5816 11.9853C14.3327 11.8614 13.1094 11.2621 12.8814 11.1795C12.6532 11.0969 12.4874 11.0556 12.3214 11.3037C12.1555 11.5513 11.679 12.1091 11.5338 12.2743C11.3887 12.4399 11.2435 12.4605 10.9947 12.3366C10.7457 12.2123 9.9444 11.9511 8.9937 11.1073C8.25401 10.4507 7.75464 9.63987 7.60948 9.39184C7.46433 9.1442 7.59394 9.00996 7.7187 8.88653C7.8305 8.77554 7.96761 8.59728 8.09214 8.45269C8.2162 8.30803 8.25761 8.20481 8.34058 8.03962C8.42362 7.87427 8.38206 7.7296 8.31995 7.6057C8.25761 7.48181 7.77409 6.25675 7.55284 5.76699Z" fill="white"/>
</svg>
